<svg width="1892" height="676" viewBox="0 0 1892 676" fill="none" xmlns="http://www.w3.org/2000/svg">
<path d="M128.5 555.5C-69.1001 628.3 4.49995 426.5 66 316.5C86.8333 307 133.2 273.9 152 217.5C175.5 147 110.5 93 191 72C271.5 51 479.5 186.5 484.5 106C489.5 25.5 799 -24 877 12.5C955 49 1071.5 72 1131.5 33C1191.5 -5.99992 1323.5 106 1399 140C1474.5 174 1617.5 145 1781 72C1944.5 -0.999985 1895.5 225.5 1833 254C1770.5 282.5 1812 420.5 1856.5 490.5C1901 560.5 1760 657 1682 615C1619.6 581.4 1547 629 1518.5 657C1313 740.5 1160 511.5 877 542.5C831.393 547.496 541.5 646.5 411.5 615C281.5 583.5 375.5 464.5 128.5 555.5Z" fill="#FFFAFF"/>
</svg>
