<svg width="45" height="31" viewBox="0 0 45 31" fill="none" xmlns="http://www.w3.org/2000/svg">
<path d="M2.55798 30.6957H30.6957C32.1026 30.6957 33.2537 29.5446 33.2537 28.1378C33.2537 26.7309 32.1026 25.5798 30.6957 25.5798H2.55798C1.15109 25.5798 0 26.7309 0 28.1378C0 29.5446 1.15109 30.6957 2.55798 30.6957ZM2.55798 17.9058H23.0218C24.4287 17.9058 25.5798 16.7548 25.5798 15.3479C25.5798 13.941 24.4287 12.7899 23.0218 12.7899H2.55798C1.15109 12.7899 0 13.941 0 15.3479C0 16.7548 1.15109 17.9058 2.55798 17.9058ZM0 2.55798C0 3.96487 1.15109 5.11596 2.55798 5.11596H30.6957C32.1026 5.11596 33.2537 3.96487 33.2537 2.55798C33.2537 1.15109 32.1026 0 30.6957 0H2.55798C1.15109 0 0 1.15109 0 2.55798ZM44.253 22.7148L36.886 15.3479L44.253 7.98089C44.4898 7.74407 44.6777 7.46292 44.8059 7.1535C44.934 6.84407 45 6.51243 45 6.17752C45 5.8426 44.934 5.51096 44.8059 5.20154C44.6777 4.89211 44.4898 4.61096 44.253 4.37414C44.0162 4.13732 43.735 3.94946 43.4256 3.82129C43.1162 3.69313 42.7846 3.62716 42.4496 3.62716C42.1147 3.62716 41.7831 3.69313 41.4737 3.82129C41.1642 3.94946 40.8831 4.13732 40.6463 4.37414L31.4631 13.5573C31.226 13.7939 31.0379 14.075 30.9095 14.3845C30.7811 14.6939 30.7151 15.0256 30.7151 15.3607C30.7151 15.6957 30.7811 16.0274 30.9095 16.3368C31.0379 16.6463 31.226 16.9274 31.4631 17.164L40.6463 26.3472C41.6439 27.3448 43.2554 27.3448 44.253 26.3472C45.225 25.3496 45.2506 23.7125 44.253 22.7148V22.7148Z" fill="#D7305C"/>
</svg>
